<svg width="276" height="286" viewBox="0 0 276 286" fill="none" xmlns="http://www.w3.org/2000/svg">
<g opacity="0.2">
<path d="M125.354 128.901C125.354 128.901 125.26 134.533 124.995 137.359C124.73 140.186 124.589 142.825 126.736 145.76C128.885 148.696 128.951 151.097 125.99 149.564C123.03 148.03 122.841 145.815 122.841 145.815C122.841 145.815 120.59 151.19 117.48 150.208C115.279 153.81 111.752 157.023 110.217 154.194C109.546 152.957 112.478 149.046 112.478 149.046C112.478 149.046 110.038 148.14 111.011 146.064C111.984 143.988 114.317 145.189 114.317 145.189C114.317 145.189 115.616 141.994 113.294 141.019C110.973 140.044 102.504 141.593 102.721 138.678C102.938 135.763 106.673 136.034 109.803 134.564C112.933 133.095 114.102 128 113.63 126.299C113.157 124.597 122.895 119.173 125.354 128.901Z" fill="#EBEFF0"/>
<path d="M116.208 152.534C116.324 152.534 116.439 152.491 116.53 152.403C119.353 149.666 119.71 144.152 119.724 143.918C119.74 143.649 119.542 143.418 119.282 143.401C119.012 143.391 118.799 143.59 118.783 143.859C118.78 143.912 118.433 149.22 115.886 151.69C115.696 151.874 115.686 152.183 115.864 152.38C115.957 152.483 116.083 152.534 116.208 152.534Z" fill="#001B47"/>
<path d="M106.654 165.947C118.774 171.412 136.873 189.039 145.058 192.125C146.412 185.602 147.866 180.577 149.334 178.73C150.02 181.325 151.15 185.602 152.522 190.794C161.175 187.614 185.683 182.86 197.223 180.03C191.762 159.552 181.275 142.387 181.275 142.387C161.877 144.663 133.014 139.259 123.744 135.346C119.16 144.918 109.624 155.798 106.654 165.947Z" fill="#001B47"/>
<path d="M107.548 138.795C108.983 138.867 110.626 138.483 112.29 137.861C117.441 135.94 122.78 131.742 122.78 131.742C122.953 131.186 123.11 130.629 123.252 130.073C123.097 132.693 123.16 134.691 123.556 135.729C124.527 138.277 150.871 147.608 172.467 148.568C185.146 149.134 196.186 146.817 199.496 138.554C199.757 137.903 200.306 107.31 190.714 89.2801C187.712 83.6368 183.714 79.2204 178.403 77.3425C156.123 69.4634 139.439 72.6655 135.322 75.1294C135.193 75.2076 135.067 75.2825 134.941 75.364C126.15 79.0219 123.204 78.3242 108.044 88.9698C108 88.9991 107.956 89.0208 107.912 89.0208H107.881C104.734 91.0387 102.095 92.9272 99.9064 94.9095C99.7182 95.0495 99.5327 95.2192 99.3411 95.3623C99.3348 95.4011 99.3287 95.4503 99.3192 95.4927C77.9275 115.668 102.227 138.531 107.548 138.795Z" fill="#E54C42"/>
<path d="M126.285 101.377C126.068 102.72 126.942 103.991 128.238 104.216L128.291 104.225C129.587 104.451 130.813 103.545 131.03 102.202L134.566 80.3738C134.783 79.0312 133.909 77.7604 132.614 77.5349L132.56 77.5256C131.265 77.3003 130.038 78.2061 129.82 79.5485L126.285 101.377Z" fill="#001B47"/>
<path d="M133.571 81.6745C128.87 80.8569 125.862 75.2329 126.853 69.1128C127.844 62.9928 132.459 58.6943 137.161 59.5119C141.862 60.3294 144.87 65.9535 143.879 72.0735C142.888 78.1935 138.273 82.492 133.571 81.6745Z" fill="#001B47"/>
<path d="M85.5459 70.0149C89.2449 77.7537 88.907 80.9478 94.2125 81.8702L127.58 79.7288C132.886 80.6512 137.909 76.942 138.799 71.4443L139.101 69.5805C139.991 64.0825 136.412 58.8774 131.106 57.955L99.8622 41.5097C94.5565 40.587 89.9768 48.5498 87.2965 53.3464L85.5459 70.0149Z" fill="#3E98D4"/>
<path d="M83.1984 60.1203C81.2881 71.9164 84.2468 82.2626 89.8072 83.2295C95.3688 84.1965 101.425 75.4179 103.335 63.6219C105.245 51.8258 102.286 41.4796 96.7256 40.5128C91.1647 39.5457 85.108 48.3243 83.1984 60.1203Z" fill="#001B47"/>
<path d="M134.583 111.154C134.583 114.064 139.363 135.368 172.466 148.569C185.146 149.135 196.185 146.818 199.496 138.554C199.756 137.904 200.306 107.311 190.714 89.2808C194.847 103.737 198.962 124.82 187.815 124.82C170.855 124.82 134.583 107.737 134.583 111.154Z" fill="#AC0D1A"/>
<path d="M123.491 94.0131C124.722 99.8977 130.849 100.503 134.512 101.402C134.867 101.489 135.24 101.662 135.625 101.902C137.972 98.546 141.448 95.2021 144.225 92.7809L143.567 92.1344C143.567 92.1344 144.44 85.4754 139.214 82.9008C133.989 80.328 134.309 84.7098 134.309 84.7098C134.309 84.7098 126.651 77.9209 125.408 80.6269C124.168 83.3334 126.768 84.0119 126.967 85.1659C127.024 85.4933 126.668 85.8744 126.158 86.3854C126.154 86.389 126.151 86.3925 126.146 86.396C126.063 86.48 125.977 86.565 125.888 86.6561C125.881 86.6614 125.876 86.6667 125.87 86.674C125.531 87.0175 125.149 87.4148 124.788 87.8865C124.788 87.8865 124.783 87.8938 124.771 87.9062C124.048 88.8498 123.402 90.0855 123.305 91.7538C123.266 92.4318 123.317 93.1814 123.491 94.0131Z" fill="#EBEFF0"/>
<path d="M126.246 91.0314C126.382 91.0314 126.517 90.9709 126.61 90.8536C126.776 90.6452 126.747 90.3378 126.546 90.1662C125.9 89.6154 125.575 89.0413 125.578 88.4596C125.583 87.516 126.444 86.7739 126.453 86.7668C126.655 86.5981 126.688 86.2906 126.525 86.0808C126.362 85.8704 126.066 85.8366 125.863 86.0053C125.813 86.0467 124.644 87.0355 124.636 88.4538C124.631 89.3437 125.072 90.1733 125.947 90.9202C126.035 90.9951 126.141 91.0314 126.246 91.0314Z" fill="#001B47"/>
<path d="M125.078 94.5291C125.249 94.5291 125.414 94.432 125.498 94.2632C125.617 94.0236 125.525 93.7293 125.294 93.6064C124.426 93.1451 123.92 92.539 123.79 91.8052C123.493 90.1253 125.121 88.2318 125.137 88.2129C125.312 88.0126 125.296 87.7038 125.103 87.5232C124.91 87.3426 124.613 87.3583 124.438 87.5588C124.358 87.6506 122.484 89.834 122.863 91.9813C123.049 93.0288 123.721 93.8677 124.863 94.4751C124.932 94.5114 125.006 94.5291 125.078 94.5291Z" fill="#001B47"/>
<path d="M175.162 57.5863C174.844 59.3085 172.804 60.3515 170.606 59.9158C168.409 59.4801 166.885 57.7308 167.203 56.0085C167.521 54.2863 169.56 53.2433 171.758 53.679C173.956 54.1147 175.48 55.8641 175.162 57.5863Z" fill="#001B47"/>
<path d="M174.088 72.2527C171.324 74.3059 167.096 73.0974 164.644 69.5534C162.191 66.0093 162.444 61.4718 165.207 59.4185C167.971 57.3652 172.199 58.5737 174.652 62.1178C177.104 65.6618 176.851 70.1994 174.088 72.2527Z" fill="#001B47"/>
<path d="M154.916 66.8475C152.153 68.9007 148.519 68.5515 146.801 66.0676C145.082 63.5837 145.929 59.9056 148.693 57.8524C151.456 55.7992 155.09 56.1484 156.808 58.6323C158.527 61.1162 157.68 64.7943 154.916 66.8475Z" fill="#001B47"/>
<path d="M155.057 67.8516C155.577 68.0123 156.119 68.1225 156.678 68.176C160.026 68.4969 163.12 66.7204 164.88 63.8348C165.488 62.8407 165.936 61.7132 166.181 60.4964C166.259 60.1135 167.229 61.9715 167.192 58.478C167.135 53.0996 163.274 49.2462 158.409 48.7806C154.103 48.3669 150.214 51.4268 149.047 55.85C148.895 56.4228 148.79 57.0199 148.735 57.6343C148.311 62.3736 151.05 66.6164 155.057 67.8516Z" fill="#EBEFF0"/>
<path d="M154.843 70.8101C155.065 70.8504 155.291 70.8822 155.519 70.9041C159.826 71.3166 163.714 68.2577 164.88 63.8345C163.12 66.7201 160.026 68.4966 156.678 68.1757C156.119 68.1222 155.577 68.012 155.057 67.8513C155.015 68.9657 154.933 69.9734 154.843 70.8101Z" fill="#001B47"/>
<path d="M156.398 78.3659C159.976 79.1241 166.835 75.4192 166.395 74.6007C165.955 73.782 165.581 71.8781 165.442 66.9078C165.377 64.6248 166.402 60.5076 166.402 60.5076C166.402 60.5076 166.324 60.503 166.181 60.4965C165.979 60.4866 165.647 60.4727 165.219 60.4629C162.647 60.4029 156.633 60.4727 154.858 62.3247C155.09 64.277 155.12 66.1856 155.056 67.8519C155.577 68.0126 156.118 68.1228 156.678 68.1763C160.026 68.4971 163.12 66.7206 164.88 63.8351C163.713 68.2583 159.825 71.3171 155.519 70.9047C155.29 70.8828 155.065 70.851 154.843 70.8106C154.674 72.3737 154.481 73.3502 154.481 73.3502C154.481 73.3502 151.469 77.3211 156.398 78.3659Z" fill="#EBEFF0"/>
<path d="M164.926 59.2901C164.523 60.5921 165.077 61.9403 166.164 62.3015C167.25 62.6627 168.458 61.8997 168.86 60.5979C169.264 59.2961 168.709 57.9477 167.623 57.5867C166.537 57.2255 165.329 57.9883 164.926 59.2901Z" fill="#EBEFF0"/>
<path d="M148.303 40.1644C149.499 40.1644 150.631 40.4365 151.645 40.9211C152.159 39.5875 153.18 38.6779 154.356 38.6779C154.444 38.6779 154.53 38.6843 154.616 38.6941C155.425 36.8255 156.875 35.4574 158.708 35.0987C161.804 34.4928 164.899 36.9759 165.958 40.7518C166.311 40.546 166.677 40.353 167.058 40.1785C172.263 37.7928 177.99 39.3923 179.851 43.7507C181.711 48.1091 179 53.5763 173.795 55.9617C171.51 57.0092 169.124 57.2879 167.009 56.9025C166.524 58.9774 164.878 60.5052 162.921 60.5052C161.612 60.5052 160.442 59.8219 159.666 58.7486C158.894 59.241 157.998 59.5243 157.041 59.5243C154.552 59.5243 152.472 57.6186 151.944 55.0672C150.857 55.6464 149.618 55.9758 148.303 55.9758C143.981 55.9758 140.478 52.4362 140.478 48.07C140.478 43.704 143.982 40.1644 148.303 40.1644Z" fill="#001B47"/>
<path d="M153.57 62.8367C153.775 62.8367 153.956 62.6843 153.993 62.4687C154.034 62.2265 153.878 61.9957 153.644 61.9531C153.169 61.8666 152.595 61.6222 152.264 61.468C152.319 61.0208 152.423 60.1695 152.523 59.3175C152.597 58.698 152.669 58.0785 152.72 57.6129C152.746 57.3773 152.766 57.181 152.779 57.0433C152.799 56.8158 152.835 56.4349 152.453 56.3502C152.233 56.3017 152.011 56.4465 151.946 56.6677C151.927 56.7323 151.924 56.7971 151.932 56.8594C151.897 57.3442 151.577 60.0164 151.373 61.6769C151.35 61.8635 151.443 62.0457 151.605 62.1304C151.648 62.1526 152.658 62.6773 153.495 62.8296C153.521 62.8344 153.546 62.8367 153.57 62.8367Z" fill="#001B47"/>
<path d="M166.893 60.3893C167.056 60.3893 167.212 60.2922 167.284 60.1285C167.611 59.3824 168.063 59.4651 168.151 59.489C168.378 59.5635 168.614 59.4315 168.686 59.1972C168.757 58.9629 168.628 58.7117 168.401 58.6375C167.976 58.4983 167.031 58.554 166.502 59.7597C166.404 59.9837 166.499 60.2475 166.715 60.3492C166.772 60.3764 166.833 60.3893 166.893 60.3893Z" fill="#001B47"/>
<path d="M152.521 190.794C158.098 211.887 167.672 248.093 167.672 248.093C167.672 248.093 185.364 247.482 208.365 245.649C206.717 238.039 199.746 211.488 193.287 187.217C192.642 184.792 192.002 182.389 191.374 180.03C183.031 182.077 170.969 185.127 161.655 187.863C156.575 189.445 152.969 190.644 152.56 190.781C152.534 190.789 152.521 190.794 152.521 190.794Z" fill="#EBEFF0"/>
<path d="M152.56 190.781C152.969 190.644 156.574 189.445 161.655 187.863C158.104 188.906 154.953 189.902 152.56 190.781Z" fill="#EBEFF0"/>
<path d="M98.9639 245.649C102.796 247.788 123.125 245.903 137.889 245.954C137.889 244.125 140.835 211.509 144.86 192.125C136.675 189.039 124.55 171.413 112.623 165.949C112.623 165.947 112.623 165.954 112.623 165.954H113.017C112.263 168.476 111.555 171.107 110.886 173.688C104.067 199.992 101.453 226.242 98.9639 245.649Z" fill="#EBEFF0"/>
<path d="M203.899 227.588C203.899 227.588 165.496 231.96 163.293 231.532C165.631 240.376 168.8 264.423 177.375 271.35C181.971 275.063 235.524 272.01 235.524 272.01C235.524 272.01 240.354 264.348 222.851 253.537C215.733 249.139 210.436 248.093 210.436 248.093L203.899 227.588Z" fill="#001B47"/>
<path d="M101.481 225.479C101.481 225.479 138.109 229.65 140.312 229.223C137.973 238.067 141.651 263.954 133.075 270.882C128.48 274.594 68.08 269.701 68.08 269.701C68.08 269.701 63.2511 262.039 80.7537 251.227C87.8722 246.83 97.7381 248.093 97.7381 248.093L101.481 225.479Z" fill="#001B47"/>
<path d="M161.655 187.863C170.968 185.127 183.031 182.166 191.373 180.119C192.002 182.478 192.642 184.871 193.286 187.394H193.288C193.288 187.394 199.133 185.009 197.223 180.119C196.675 178.716 196.416 178.959 190.649 180.082C181.99 181.77 169.886 185.297 161.655 187.863Z" fill="#001B47"/>
<path d="M110.886 173.685C111.555 171.104 112.263 168.522 113.018 165.948C112.9 165.883 107.284 162.842 106.653 165.948C106.184 168.263 108.661 171.925 110.886 173.685Z" fill="#001B47"/>
<path d="M157.692 139.658C157.862 139.658 158.023 139.553 158.091 139.379C158.18 139.151 158.074 138.892 157.853 138.8C145.711 133.712 133.392 115.624 133.404 108.407C133.407 106.696 134.271 104.595 135.973 102.164C138.351 98.7642 141.923 95.3701 144.502 93.1214C146.653 91.242 148.401 89.9056 148.836 89.5767C161.528 89.1807 172.467 98.1485 179.411 105.757C186.997 114.068 191.603 122.605 191.649 122.69C191.764 122.905 192.025 122.983 192.233 122.863C192.44 122.744 192.515 122.473 192.4 122.258C192.355 122.172 187.704 113.551 180.049 105.159C175.544 100.223 170.893 96.3253 166.225 93.5759C160.365 90.1253 154.459 88.4815 148.676 88.6911C148.591 88.6944 148.509 88.7232 148.44 88.7741C148.421 88.7887 146.453 90.252 143.948 92.4406C141.333 94.7211 137.706 98.1684 135.278 101.641C133.467 104.227 132.548 106.503 132.545 108.406C132.539 112.265 135.581 118.646 140.484 125.059C145.794 132.001 152.007 137.31 157.531 139.625C157.584 139.647 157.639 139.658 157.692 139.658Z" fill="#001B47"/>
<path d="M184.51 110.073C184.583 110.073 184.658 110.054 184.726 110.013C184.765 109.989 188.825 107.599 195.127 108.132C195.366 108.153 195.571 107.97 195.59 107.725C195.61 107.48 195.434 107.265 195.198 107.245C188.61 106.687 184.466 109.139 184.293 109.243C184.088 109.368 184.019 109.64 184.138 109.852C184.218 109.994 184.362 110.073 184.51 110.073Z" fill="#001B47"/>
<path d="M195.162 117.745C195.295 117.745 195.428 117.683 195.512 117.57C195.641 117.397 195.752 117.247 194.926 113.817C194.587 112.409 193.854 109.527 192.754 106.045C191.038 100.613 188.273 93.2184 184.842 88.8388C184.693 88.6482 184.422 88.6189 184.238 88.7738C184.054 88.9289 184.026 89.2091 184.175 89.4001C187.455 93.5877 190.133 100.682 191.802 105.896C193.622 111.586 194.687 116.427 194.748 117.181C194.692 117.389 194.789 117.614 194.984 117.706C195.041 117.733 195.101 117.745 195.162 117.745Z" fill="#001B47"/>
<path d="M123.557 136.219C123.807 136.219 124.016 136.016 124.028 135.755C124.033 135.642 124.561 124.353 125.801 112.903C126.34 107.928 126.936 103.621 127.572 100.103C127.62 99.8379 127.451 99.5827 127.196 99.5332C126.941 99.484 126.694 99.6578 126.646 99.9229C126.005 103.465 125.406 107.795 124.864 112.795C123.622 124.276 123.092 135.595 123.087 135.708C123.074 135.977 123.274 136.206 123.535 136.218C123.543 136.219 123.55 136.219 123.557 136.219Z" fill="#001B47"/>
<path d="M157.481 82.6258C158.921 82.6258 160.455 82.4309 162.071 82.0379C166.389 80.9883 169.724 78.9359 169.864 78.8488C170.068 78.7225 170.133 78.449 170.012 78.2384C169.889 78.0276 169.626 77.959 169.423 78.0853C169.389 78.106 166.047 80.161 161.855 81.1757C156.316 82.5169 151.993 81.5039 149.007 78.1645C148.845 77.9844 148.574 77.9738 148.399 78.1408C148.226 78.3078 148.215 78.5895 148.376 78.7696C150.662 81.3253 153.761 82.6258 157.481 82.6258Z" fill="#001B47"/>
<path d="M157.942 185.922C158.007 185.922 158.072 185.907 158.134 185.875C170.801 179.335 191.872 176.333 192.082 176.303C192.318 176.271 192.483 176.046 192.451 175.803C192.419 175.559 192.203 175.388 191.968 175.421C191.755 175.45 170.545 178.473 157.751 185.078C157.538 185.188 157.452 185.455 157.558 185.675C157.633 185.832 157.784 185.922 157.942 185.922Z" fill="#EBEFF0"/>
<path d="M143.271 185.922C143.451 185.922 143.619 185.804 143.679 185.618C143.75 185.398 143.646 185.161 143.445 185.07C143.214 184.908 142.238 183.818 141.109 182.558C138.191 179.3 132.76 173.235 126.946 168.241C119.796 162.099 114.012 159.242 109.757 159.752C109.522 159.78 109.353 160.001 109.38 160.245C109.408 160.489 109.62 160.664 109.856 160.636C119.294 159.506 134.685 176.694 140.48 183.164C142.45 185.365 142.861 185.804 143.136 185.899C143.181 185.915 143.226 185.922 143.271 185.922Z" fill="#EBEFF0"/>
<path d="M179.631 160.583C179.775 160.583 179.916 160.508 179.997 160.371C180.121 160.162 180.057 159.888 179.856 159.759C174.141 156.122 172.847 153.562 172.768 152.055C172.704 150.849 173.425 150.256 173.432 150.25C173.619 150.1 173.653 149.82 173.508 149.626C173.363 149.431 173.094 149.396 172.905 149.546C172.861 149.582 171.822 150.436 171.91 152.103C172.04 154.605 174.563 157.436 179.406 160.518C179.476 160.562 179.554 160.583 179.631 160.583Z" fill="#EBEFF0"/>
<path d="M151.799 189.767C151.847 189.767 151.895 189.759 151.943 189.741C152.167 189.659 152.284 189.404 152.204 189.172C150.776 185.008 146.371 162.469 146.327 162.242C146.28 162.001 146.054 161.844 145.82 161.894C145.588 161.943 145.438 162.177 145.485 162.419C145.667 163.349 149.946 185.247 151.395 189.471C151.457 189.653 151.622 189.767 151.799 189.767Z" fill="#EBEFF0"/>
<path d="M208.366 255.717C208.583 255.717 208.769 255.547 208.792 255.318C208.817 255.074 208.646 254.855 208.41 254.83C207.872 254.772 206.296 253.682 203.274 244.846C201.579 239.889 200.267 234.908 200.254 234.858C200.191 234.621 199.954 234.48 199.726 234.545C199.498 234.61 199.362 234.854 199.425 235.092C199.438 235.142 200.757 240.151 202.463 245.138C205.627 254.393 207.322 255.607 208.32 255.715C208.336 255.716 208.351 255.717 208.366 255.717Z" fill="#EBEFF0"/>
<path d="M202.034 255.717C202.182 255.717 202.327 255.637 202.406 255.495L207.217 246.896C207.278 246.788 207.292 246.658 207.255 246.539C207.219 246.419 207.135 246.321 207.025 246.269L198.126 242.036L204.33 238.023C204.53 237.893 204.592 237.618 204.466 237.41C204.341 237.201 204.076 237.138 203.875 237.268L196.995 241.719C196.861 241.806 196.784 241.962 196.794 242.125C196.804 242.288 196.9 242.433 197.044 242.501L206.237 246.873L201.662 255.049C201.544 255.261 201.614 255.534 201.819 255.657C201.887 255.698 201.961 255.717 202.034 255.717Z" fill="#EBEFF0"/>
<path d="M100.66 251.088C100.769 251.088 100.879 251.045 100.963 250.958C104.457 247.337 106.917 231.789 107.02 231.128C107.058 230.886 106.899 230.657 106.665 230.618C106.43 230.579 106.21 230.744 106.172 230.987C106.147 231.146 103.655 246.909 100.356 250.328C100.188 250.502 100.188 250.784 100.356 250.958C100.44 251.045 100.549 251.088 100.66 251.088Z" fill="#EBEFF0"/>
<path d="M107.478 247.118C107.605 247.118 107.728 247.059 107.81 246.955C107.913 246.825 107.936 246.646 107.871 246.493L104.226 237.947C108.258 236.884 114.06 235.419 114.749 235.419C114.986 235.419 115.178 235.22 115.178 234.974C115.178 234.728 114.986 234.529 114.749 234.529C113.694 234.529 104.559 236.939 103.521 237.214C103.399 237.246 103.296 237.333 103.242 237.45C103.186 237.568 103.184 237.705 103.235 237.825L106.742 246.05L100.751 244.688C100.52 244.636 100.29 244.788 100.239 245.028C100.189 245.268 100.336 245.505 100.567 245.558L107.386 247.108C107.416 247.115 107.448 247.118 107.478 247.118Z" fill="#EBEFF0"/>
<path d="M125.333 114.497C125.336 114.497 125.34 114.497 125.343 114.497C125.581 114.497 125.768 114.344 125.763 114.098C125.609 107.468 116.909 101.964 112.727 99.3053C112.6 99.2243 112.471 99.1567 112.346 99.0763C112.973 99.2498 113.614 99.4463 113.943 99.5442C114.172 99.6113 114.41 99.4783 114.475 99.2417C114.54 99.0054 114.408 98.761 114.18 98.6936C112.903 98.3155 112.09 98.0908 111.545 97.9629C110.95 97.8242 110.389 97.6933 110.199 98.14C110.015 98.5753 110.448 98.8805 110.832 99.1492C111.174 99.3898 111.661 99.7 112.278 100.092C116.014 102.468 124.762 107.973 124.904 114.12C124.909 114.362 125.1 114.497 125.333 114.497Z" fill="#001B47"/>
<path d="M136.442 109.064C136.636 109.064 136.812 108.928 136.86 108.724C138.362 102.351 150.266 91.4076 150.386 91.2971C150.564 91.1347 150.581 90.8532 150.424 90.669C150.266 90.4849 149.995 90.4672 149.817 90.6299C149.319 91.0857 137.591 101.87 136.025 108.513C135.969 108.752 136.11 108.992 136.341 109.051C136.375 109.06 136.409 109.064 136.442 109.064Z" fill="#001B47"/>
<path d="M108.051 136.284C114.745 136.284 123.485 125.931 123.882 125.455C124.037 125.27 124.018 124.988 123.838 124.827C123.659 124.666 123.388 124.687 123.232 124.873C123.131 124.994 112.993 137.006 106.71 135.214C106.481 135.149 106.245 135.289 106.182 135.526C106.119 135.763 106.253 136.007 106.482 136.073C106.988 136.217 107.513 136.284 108.051 136.284Z" fill="#001B47"/>
<path d="M125.598 110.947C125.646 110.947 125.696 110.938 125.744 110.921C125.967 110.837 126.082 110.581 126.001 110.35C125.591 109.179 121.917 98.8773 119.411 97.8628C119.189 97.773 118.941 97.8867 118.854 98.1153C118.768 98.344 118.877 98.6023 119.098 98.6916C120.713 99.3454 123.694 106.376 125.194 110.654C125.258 110.835 125.422 110.947 125.598 110.947Z" fill="#001B47"/>
<path d="M79.3825 60.7028C79.4439 60.7028 79.5059 60.6985 79.5678 60.69L89.1971 59.3299C89.9495 59.2237 90.4758 58.5053 90.3735 57.7262C90.2708 56.947 89.5783 56.4007 88.8259 56.5071L79.7072 57.7951L72.0155 52.5566C71.7375 52.3679 71.4038 52.2892 71.0752 52.3359L61.9553 53.6238L54.2629 48.3856C53.9854 48.1962 53.6521 48.118 53.3225 48.1644L43.6917 49.524C42.9398 49.6302 42.4128 50.3478 42.5153 51.1274C42.6178 51.9068 43.3091 52.4532 44.063 52.3465L53.184 51.0591L60.8765 56.2973C61.1538 56.4864 61.488 56.5651 61.8168 56.5185L70.936 55.2308L78.6277 60.4688C78.8524 60.6219 79.115 60.7028 79.3825 60.7028Z" fill="#F39200"/>
<path d="M50.5021 72.7552C50.7329 72.7552 50.9673 72.6946 51.1827 72.5672L57.7941 68.6513L64.9898 71.2377C65.3647 71.3729 65.7772 71.3325 66.1224 71.1287L72.7331 67.2133L79.9276 69.7997C80.3017 69.9344 80.715 69.8948 81.0595 69.6907L88.2135 65.4537C88.8722 65.0632 89.101 64.193 88.7244 63.5104C88.3474 62.8274 87.5081 62.59 86.8491 62.9805L80.2384 66.8962L73.044 64.3098C72.6691 64.1751 72.2565 64.2147 71.9118 64.4187L65.3006 68.3345L58.1055 65.7483C57.7304 65.6136 57.3173 65.6529 56.9731 65.857L49.8193 70.0943C49.1594 70.4845 48.9309 71.3545 49.3072 72.0378C49.5608 72.4971 50.0245 72.7549 50.5021 72.7552Z" fill="#F39200"/>
<path d="M90.3997 53.757C91.0912 53.757 91.6866 53.218 91.7645 52.4893C91.848 51.7073 91.3042 51.0033 90.5493 50.9168L83.3053 50.0852L79.3536 43.7392C79.1292 43.379 78.7611 43.1429 78.3503 43.0955L71.1059 42.2641L67.1533 35.9178C66.9294 35.5577 66.5608 35.3216 66.1497 35.2741L58.2557 34.3676C57.5028 34.2813 56.8213 34.8448 56.7387 35.6265C56.6545 36.4084 57.1988 37.1124 57.9534 37.199L65.198 38.0311L69.1503 44.3773C69.3745 44.7375 69.743 44.9739 70.1537 45.0211L77.398 45.8524L81.3499 52.1984C81.5738 52.5584 81.9424 52.7947 82.3535 52.8421L90.247 53.7479C90.2984 53.7542 90.3493 53.757 90.3997 53.757Z" fill="#F39200"/>
<path d="M107.547 138.795C108.983 138.867 110.625 138.483 112.29 137.861C109.702 132.771 105.631 126.35 103.49 120.426C100.459 112.056 105.129 96.9081 108.044 88.9702C108 88.9995 107.956 89.0212 107.912 89.0212H107.88C104.733 91.0391 102.095 92.9275 99.9057 94.9099C99.7176 95.0499 99.5321 95.2196 99.3405 95.3626C99.3342 95.4015 99.3281 95.4507 99.3186 95.493C77.9271 115.668 102.227 138.531 107.547 138.795Z" fill="#AC0D1A"/>
</g>
</svg>
