<svg width="500" height="517" viewBox="0 0 500 517" fill="none" xmlns="http://www.w3.org/2000/svg">
<path d="M272.91 233.013C272.91 233.013 273.079 243.193 273.559 248.303C274.039 253.413 274.296 258.184 270.405 263.49C266.513 268.796 266.394 273.137 271.756 270.365C277.12 267.592 277.462 263.589 277.462 263.589C277.462 263.589 281.539 273.305 287.174 271.529C291.161 278.041 297.551 283.849 300.331 278.736C301.548 276.499 296.235 269.429 296.235 269.429C296.235 269.429 300.656 267.79 298.893 264.038C297.13 260.285 292.904 262.457 292.904 262.457C292.904 262.457 290.55 256.682 294.756 254.919C298.963 253.156 314.305 255.956 313.911 250.687C313.519 245.418 306.752 245.907 301.081 243.25C295.412 240.594 293.294 231.385 294.148 228.309C295.005 225.233 277.364 215.428 272.91 233.013Z" fill="#EBEFF0"/>
<path d="M289.478 275.735C289.269 275.735 289.06 275.657 288.894 275.498C283.781 270.549 283.134 260.582 283.109 260.16C283.08 259.674 283.438 259.255 283.909 259.225C284.399 259.206 284.783 259.566 284.813 260.052C284.819 260.148 285.447 269.744 290.061 274.209C290.405 274.542 290.423 275.1 290.102 275.456C289.933 275.641 289.705 275.735 289.478 275.735Z" fill="#001B47"/>
<path d="M306.787 299.982C284.831 309.86 252.041 341.725 237.214 347.304C234.762 335.511 232.127 326.429 229.468 323.09C228.225 327.779 226.178 335.511 223.693 344.897C208.017 339.149 163.618 330.556 142.712 325.439C152.606 288.422 171.603 257.392 171.603 257.392C206.745 261.507 259.032 251.737 275.826 244.665C284.131 261.967 301.406 281.635 306.787 299.982Z" fill="#001B47"/>
<path d="M305.168 250.899C302.567 251.028 299.591 250.334 296.576 249.21C287.245 245.739 277.572 238.15 277.572 238.15C277.26 237.143 276.975 236.137 276.719 235.132C276.998 239.868 276.884 243.48 276.167 245.356C274.409 249.963 226.683 266.83 187.56 268.565C164.591 269.589 144.592 265.4 138.594 250.463C138.122 249.286 137.126 193.984 154.503 161.391C159.942 151.19 167.185 143.206 176.807 139.812C217.169 125.569 247.393 131.357 254.853 135.811C255.086 135.952 255.313 136.088 255.541 136.235C271.467 142.847 276.804 141.586 304.268 160.83C304.348 160.883 304.427 160.922 304.507 160.922H304.564C310.265 164.57 315.045 167.984 319.011 171.567C319.351 171.82 319.687 172.127 320.034 172.386C320.046 172.456 320.057 172.545 320.074 172.621C358.827 209.093 314.806 250.422 305.168 250.899Z" fill="#E54C42"/>
<path d="M271.222 183.259C271.616 185.685 270.032 187.983 267.685 188.391L267.589 188.407C265.241 188.815 263.02 187.177 262.626 184.75L256.222 145.291C255.829 142.864 257.412 140.567 259.758 140.159L259.855 140.142C262.202 139.735 264.424 141.372 264.818 143.799L271.222 183.259Z" fill="#001B47"/>
<path d="M258.023 147.642C266.54 146.164 271.989 135.998 270.193 124.935C268.398 113.871 260.038 106.101 251.521 107.579C243.004 109.057 237.555 119.223 239.35 130.286C241.146 141.35 249.506 149.12 258.023 147.642Z" fill="#001B47"/>
<path d="M345.025 126.566C338.324 140.555 338.937 146.329 329.325 147.996L268.877 144.125C259.265 145.793 250.165 139.088 248.553 129.15L248.005 125.78C246.393 115.842 252.877 106.432 262.489 104.765L319.09 75.0369C328.702 73.369 336.998 87.7634 341.854 96.434L345.025 126.566Z" fill="#3E98D4"/>
<path d="M349.278 108.679C352.739 130.003 347.379 148.706 337.306 150.453C327.23 152.201 316.259 136.333 312.799 115.009C309.338 93.6852 314.7 74.9824 324.772 73.2347C334.846 71.4865 345.819 87.3554 349.278 108.679Z" fill="#001B47"/>
<path d="M256.19 200.933C256.19 206.193 247.531 244.704 187.561 268.566C164.591 269.59 144.592 265.401 138.595 250.464C138.123 249.287 137.127 193.985 154.504 161.392C147.016 187.525 139.562 225.637 159.755 225.637C190.479 225.637 256.19 194.756 256.19 200.933Z" fill="#AC0D1A"/>
<path d="M276.284 169.947C274.055 180.585 262.955 181.679 256.319 183.304C255.675 183.461 255 183.774 254.302 184.208C250.05 178.141 243.752 172.096 238.723 167.72L239.915 166.551C239.915 166.551 238.334 154.514 247.8 149.859C257.266 145.209 256.687 153.13 256.687 153.13C256.687 153.13 270.56 140.857 272.81 145.749C275.058 150.641 270.348 151.868 269.987 153.954C269.884 154.546 270.529 155.235 271.453 156.159C271.46 156.165 271.465 156.171 271.475 156.178C271.625 156.33 271.78 156.483 271.942 156.648C271.954 156.657 271.963 156.667 271.973 156.68C272.589 157.301 273.28 158.019 273.934 158.872C273.934 158.872 273.943 158.885 273.964 158.908C275.275 160.613 276.446 162.847 276.62 165.863C276.692 167.089 276.599 168.444 276.284 169.947Z" fill="#EBEFF0"/>
<path d="M271.292 164.557C271.046 164.557 270.802 164.447 270.633 164.235C270.333 163.858 270.386 163.303 270.75 162.993C271.919 161.997 272.509 160.959 272.504 159.908C272.494 158.202 270.935 156.86 270.919 156.848C270.552 156.543 270.492 155.987 270.787 155.607C271.083 155.227 271.619 155.166 271.988 155.471C272.078 155.546 274.195 157.333 274.21 159.897C274.22 161.506 273.421 163.005 271.834 164.355C271.675 164.491 271.483 164.557 271.292 164.557Z" fill="#001B47"/>
<path d="M273.408 170.88C273.098 170.88 272.8 170.705 272.648 170.4C272.433 169.966 272.599 169.434 273.018 169.212C274.59 168.378 275.507 167.283 275.741 165.956C276.281 162.919 273.331 159.496 273.302 159.462C272.985 159.1 273.013 158.542 273.363 158.216C273.713 157.889 274.252 157.917 274.568 158.28C274.713 158.446 278.109 162.393 277.421 166.274C277.085 168.168 275.867 169.685 273.798 170.783C273.673 170.848 273.54 170.88 273.408 170.88Z" fill="#001B47"/>
<path d="M182.677 104.099C183.253 107.212 186.948 109.097 190.93 108.31C194.911 107.522 197.672 104.36 197.096 101.246C196.52 98.1332 192.825 96.2479 188.844 97.0355C184.862 97.8231 182.101 100.985 182.677 104.099Z" fill="#001B47"/>
<path d="M184.623 130.611C189.63 134.323 197.29 132.138 201.732 125.731C206.175 119.325 205.717 111.122 200.711 107.411C195.704 103.699 188.044 105.883 183.602 112.29C179.159 118.697 179.617 126.899 184.623 130.611Z" fill="#001B47"/>
<path d="M219.354 120.84C224.36 124.551 230.943 123.92 234.057 119.43C237.17 114.94 235.636 108.291 230.629 104.579C225.623 100.868 219.04 101.499 215.927 105.989C212.813 110.479 214.348 117.128 219.354 120.84Z" fill="#001B47"/>
<path d="M219.1 122.655C218.157 122.945 217.177 123.144 216.164 123.241C210.098 123.821 204.493 120.61 201.304 115.393C200.203 113.596 199.391 111.558 198.948 109.359C198.807 108.666 197.05 112.025 197.117 105.71C197.219 95.9874 204.215 89.0216 213.028 88.1799C220.829 87.4321 227.874 92.9635 229.987 100.959C230.264 101.995 230.454 103.074 230.554 104.185C231.32 112.752 226.36 120.422 219.1 122.655Z" fill="#EBEFF0"/>
<path d="M219.488 128.003C219.086 128.076 218.676 128.134 218.263 128.173C210.461 128.919 203.418 123.389 201.304 115.394C204.493 120.61 210.099 123.821 216.164 123.241C217.177 123.145 218.157 122.945 219.101 122.655C219.176 124.669 219.325 126.491 219.488 128.003Z" fill="#001B47"/>
<path d="M216.67 141.661C210.189 143.032 197.763 136.335 198.561 134.855C199.357 133.375 200.036 129.933 200.287 120.949C200.404 116.822 198.547 109.379 198.547 109.379C198.547 109.379 198.688 109.371 198.948 109.359C199.314 109.341 199.916 109.316 200.691 109.298C205.35 109.19 216.244 109.316 219.461 112.664C219.04 116.193 218.987 119.643 219.101 122.655C218.158 122.946 217.177 123.145 216.164 123.242C210.099 123.822 204.494 120.61 201.305 115.394C203.418 123.39 210.462 128.919 218.264 128.174C218.677 128.134 219.086 128.077 219.488 128.004C219.793 130.829 220.144 132.594 220.144 132.594C220.144 132.594 225.6 139.773 216.67 141.661Z" fill="#EBEFF0"/>
<path d="M201.222 107.178C201.951 109.532 200.948 111.969 198.979 112.622C197.011 113.275 194.823 111.896 194.094 109.542C193.363 107.189 194.367 104.752 196.335 104.099C198.303 103.446 200.491 104.825 201.222 107.178Z" fill="#EBEFF0"/>
<path d="M231.335 72.6047C229.168 72.6047 227.117 73.0967 225.281 73.9726C224.35 71.5619 222.501 69.9177 220.369 69.9177C220.21 69.9177 220.053 69.9291 219.898 69.9469C218.433 66.5691 215.806 64.0959 212.485 63.4475C206.877 62.3523 201.27 66.8408 199.351 73.6666C198.711 73.2946 198.049 72.9457 197.359 72.6302C187.929 68.3177 177.553 71.209 174.183 79.0876C170.812 86.9662 175.724 96.8493 185.154 101.161C189.293 103.055 193.615 103.559 197.448 102.862C198.325 106.613 201.308 109.375 204.853 109.375C207.223 109.375 209.343 108.139 210.75 106.199C212.147 107.089 213.772 107.601 215.505 107.601C220.013 107.601 223.782 104.157 224.738 99.5445C226.709 100.591 228.953 101.187 231.335 101.187C239.164 101.187 245.51 94.7883 245.51 86.8955C245.51 79.0032 239.164 72.6047 231.335 72.6047Z" fill="#001B47"/>
<path d="M221.794 113.589C221.422 113.589 221.094 113.314 221.028 112.924C220.953 112.486 221.236 112.069 221.66 111.992C222.52 111.836 223.559 111.394 224.159 111.115C224.06 110.307 223.872 108.768 223.69 107.228C223.557 106.108 223.427 104.988 223.334 104.146C223.287 103.72 223.251 103.366 223.227 103.117C223.19 102.705 223.126 102.017 223.818 101.864C224.215 101.776 224.618 102.038 224.735 102.438C224.769 102.554 224.776 102.672 224.76 102.784C224.825 103.661 225.404 108.491 225.774 111.493C225.816 111.83 225.647 112.159 225.353 112.312C225.276 112.353 223.446 113.301 221.929 113.576C221.883 113.585 221.837 113.589 221.794 113.589Z" fill="#001B47"/>
<path d="M197.658 109.165C197.362 109.165 197.08 108.99 196.949 108.694C196.356 107.345 195.538 107.495 195.378 107.538C194.968 107.672 194.54 107.434 194.41 107.01C194.28 106.587 194.515 106.133 194.926 105.999C195.696 105.747 197.408 105.848 198.367 108.027C198.544 108.432 198.371 108.909 197.98 109.093C197.876 109.142 197.766 109.165 197.658 109.165Z" fill="#001B47"/>
<path d="M223.693 344.897C213.59 383.027 196.246 448.477 196.246 448.477C196.246 448.477 164.195 447.371 122.526 444.058C125.513 430.301 138.141 382.305 149.842 338.43C151.01 334.048 152.169 329.703 153.308 325.439C168.421 329.14 190.274 334.653 207.146 339.599C216.35 342.459 222.881 344.626 223.622 344.874C223.67 344.888 223.693 344.897 223.693 344.897Z" fill="#EBEFF0"/>
<path d="M223.623 344.874C222.881 344.626 216.35 342.458 207.146 339.599C213.579 341.483 219.289 343.285 223.623 344.874Z" fill="#EBEFF0"/>
<path d="M320.717 444.058C313.774 447.925 276.947 444.517 250.201 444.609C250.201 441.303 244.864 382.344 237.571 347.303C252.4 341.724 274.365 309.862 295.973 299.984C295.973 299.981 295.973 299.993 295.973 299.993H295.258C296.625 304.552 297.907 309.308 299.119 313.974C311.472 361.523 316.207 408.976 320.717 444.058Z" fill="#EBEFF0"/>
<path d="M130.618 411.41C130.618 411.41 200.189 419.312 204.179 418.539C199.943 434.526 194.203 477.995 178.669 490.518C170.343 497.229 73.3252 491.71 73.3252 491.71C73.3252 491.71 64.5758 477.86 96.2844 458.316C109.18 450.367 118.776 448.476 118.776 448.476L130.618 411.41Z" fill="#001B47"/>
<path d="M316.157 407.598C316.157 407.598 249.803 415.138 245.812 414.365C250.048 430.352 243.386 477.148 258.921 489.671C267.247 496.383 376.667 487.537 376.667 487.537C376.667 487.537 385.415 473.687 353.707 454.142C340.811 446.194 322.938 448.477 322.938 448.477L316.157 407.598Z" fill="#001B47"/>
<path d="M207.146 339.599C190.275 334.653 168.422 329.299 153.309 325.599C152.17 329.863 151.011 334.19 149.843 338.75H149.84C149.84 338.75 139.251 334.44 142.712 325.599C143.704 323.064 144.174 323.503 154.621 325.534C170.308 328.584 192.235 334.96 207.146 339.599Z" fill="#001B47"/>
<path d="M299.119 313.968C297.907 309.302 296.625 304.637 295.258 299.982C295.471 299.865 305.644 294.367 306.787 299.982C307.637 304.168 303.15 310.787 299.119 313.968Z" fill="#001B47"/>
<path d="M214.325 252.459C214.017 252.459 213.726 252.268 213.603 251.955C213.443 251.543 213.634 251.074 214.034 250.908C236.03 241.71 258.347 209.014 258.327 195.967C258.321 192.873 256.755 189.076 253.672 184.681C249.365 178.536 242.893 172.4 238.221 168.335C234.324 164.938 231.158 162.522 230.369 161.927C207.377 161.212 187.56 177.423 174.98 191.176C161.237 206.199 152.892 221.632 152.81 221.786C152.601 222.175 152.128 222.315 151.752 222.099C151.376 221.884 151.241 221.394 151.448 221.006C151.531 220.85 159.956 205.265 173.825 190.096C181.985 181.172 190.411 174.127 198.868 169.157C209.484 162.919 220.182 159.948 230.659 160.327C230.813 160.333 230.961 160.384 231.086 160.477C231.12 160.503 234.686 163.148 239.224 167.105C243.961 171.227 250.532 177.459 254.932 183.736C258.211 188.411 259.877 192.525 259.883 195.964C259.893 202.942 254.382 214.477 245.5 226.068C235.881 238.617 224.625 248.214 214.617 252.4C214.521 252.44 214.422 252.459 214.325 252.459Z" fill="#001B47"/>
<path d="M165.744 198.978C165.61 198.978 165.476 198.943 165.352 198.869C165.281 198.825 157.926 194.505 146.509 195.469C146.077 195.507 145.705 195.176 145.67 194.733C145.635 194.29 145.954 193.901 146.381 193.866C158.315 192.858 165.823 197.289 166.137 197.478C166.508 197.703 166.633 198.195 166.417 198.579C166.272 198.835 166.011 198.978 165.744 198.978Z" fill="#001B47"/>
<path d="M146.446 212.847C146.203 212.847 145.963 212.734 145.811 212.531C145.577 212.217 145.376 211.947 146.872 205.745C147.487 203.201 148.815 197.991 150.808 191.696C153.916 181.877 158.926 168.51 165.14 160.593C165.411 160.249 165.902 160.196 166.234 160.476C166.569 160.756 166.62 161.263 166.349 161.608C160.406 169.178 155.555 182.002 152.532 191.428C149.234 201.713 147.306 210.465 147.195 211.827C147.297 212.203 147.122 212.61 146.767 212.776C146.665 212.824 146.555 212.847 146.446 212.847Z" fill="#001B47"/>
<path d="M276.164 246.243C275.712 246.243 275.334 245.875 275.312 245.403C275.303 245.199 274.346 224.793 272.1 204.095C271.123 195.101 270.043 187.316 268.891 180.956C268.804 180.476 269.11 180.015 269.572 179.926C270.034 179.837 270.481 180.151 270.569 180.63C271.729 187.033 272.815 194.861 273.796 203.898C276.048 224.654 277.008 245.114 277.017 245.318C277.04 245.805 276.677 246.219 276.205 246.241C276.191 246.243 276.177 246.243 276.164 246.243Z" fill="#001B47"/>
<path d="M214.709 149.362C212.099 149.362 209.32 149.009 206.393 148.299C198.57 146.402 192.529 142.692 192.275 142.534C191.906 142.306 191.787 141.812 192.008 141.431C192.229 141.05 192.707 140.926 193.075 141.154C193.136 141.191 199.19 144.906 206.785 146.741C216.819 149.165 224.65 147.334 230.06 141.297C230.353 140.972 230.845 140.953 231.16 141.254C231.475 141.556 231.494 142.066 231.203 142.391C227.062 147.011 221.448 149.362 214.709 149.362Z" fill="#001B47"/>
<path d="M213.872 336.09C213.755 336.09 213.638 336.062 213.525 336.005C190.577 324.182 152.406 318.755 152.024 318.702C151.597 318.642 151.299 318.237 151.356 317.797C151.414 317.356 151.805 317.048 152.231 317.107C152.617 317.16 191.042 322.624 214.219 334.564C214.604 334.762 214.761 335.246 214.569 335.644C214.433 335.926 214.158 336.09 213.872 336.09Z" fill="#EBEFF0"/>
<path d="M240.45 336.09C240.124 336.09 239.82 335.877 239.711 335.539C239.584 335.142 239.772 334.714 240.135 334.549C240.555 334.257 242.323 332.286 244.367 330.009C249.653 324.119 259.493 313.155 270.024 304.129C282.978 293.024 293.457 287.861 301.164 288.782C301.591 288.832 301.896 289.232 301.847 289.673C301.798 290.115 301.413 290.431 300.985 290.381C283.888 288.338 256.004 319.408 245.507 331.104C241.937 335.082 241.194 335.876 240.696 336.048C240.614 336.076 240.531 336.09 240.45 336.09Z" fill="#EBEFF0"/>
<path d="M174.582 290.285C174.32 290.285 174.065 290.149 173.918 289.902C173.693 289.523 173.808 289.028 174.174 288.795C184.527 282.22 186.871 277.593 187.015 274.869C187.129 272.688 185.824 271.617 185.811 271.606C185.472 271.334 185.41 270.829 185.673 270.478C185.936 270.126 186.424 270.062 186.765 270.334C186.845 270.399 188.727 271.942 188.569 274.956C188.332 279.478 183.763 284.596 174.989 290.167C174.861 290.247 174.721 290.285 174.582 290.285Z" fill="#EBEFF0"/>
<path d="M225.002 343.041C224.914 343.041 224.827 343.026 224.741 342.994C224.336 342.845 224.124 342.385 224.268 341.966C226.855 334.438 234.835 293.695 234.915 293.283C235 292.848 235.41 292.565 235.832 292.655C236.254 292.743 236.526 293.167 236.44 293.603C236.111 295.285 228.359 334.869 225.734 342.505C225.621 342.835 225.322 343.041 225.002 343.041Z" fill="#EBEFF0"/>
<path d="M122.526 462.258C122.132 462.258 121.795 461.95 121.754 461.537C121.708 461.095 122.019 460.699 122.445 460.653C123.42 460.548 126.274 458.579 131.749 442.605C134.821 433.645 137.198 424.641 137.221 424.55C137.334 424.122 137.764 423.868 138.177 423.985C138.591 424.102 138.836 424.544 138.723 424.973C138.699 425.063 136.309 434.119 133.22 443.135C127.487 459.864 124.417 462.059 122.608 462.254C122.58 462.256 122.553 462.258 122.526 462.258Z" fill="#EBEFF0"/>
<path d="M133.996 462.258C133.727 462.258 133.465 462.114 133.322 461.857L124.605 446.313C124.495 446.116 124.471 445.882 124.537 445.666C124.602 445.45 124.755 445.272 124.953 445.178L141.075 437.527L129.837 430.273C129.473 430.037 129.362 429.541 129.59 429.164C129.817 428.787 130.297 428.672 130.661 428.907L143.124 436.954C143.368 437.11 143.507 437.392 143.488 437.687C143.47 437.982 143.297 438.244 143.036 438.367L126.382 446.271L134.669 461.05C134.884 461.434 134.757 461.927 134.385 462.149C134.263 462.223 134.128 462.258 133.996 462.258Z" fill="#EBEFF0"/>
<path d="M317.646 453.89C317.448 453.89 317.249 453.812 317.097 453.654C310.766 447.108 306.309 419.002 306.123 417.809C306.054 417.37 306.343 416.957 306.766 416.887C307.192 416.815 307.591 417.114 307.659 417.553C307.704 417.84 312.219 446.336 318.197 452.516C318.5 452.83 318.5 453.34 318.197 453.654C318.045 453.811 317.846 453.89 317.646 453.89Z" fill="#EBEFF0"/>
<path d="M305.294 446.713C305.063 446.713 304.841 446.607 304.692 446.418C304.506 446.183 304.464 445.861 304.581 445.583L311.185 430.134C303.88 428.214 293.369 425.566 292.122 425.566C291.692 425.566 291.344 425.205 291.344 424.761C291.344 424.316 291.692 423.957 292.122 423.957C294.032 423.957 310.581 428.313 312.461 428.809C312.683 428.868 312.869 429.024 312.968 429.237C313.069 429.45 313.072 429.698 312.98 429.914L306.626 444.782L317.48 442.321C317.899 442.226 318.315 442.501 318.407 442.935C318.498 443.369 318.232 443.798 317.813 443.894L305.46 446.695C305.405 446.707 305.349 446.713 305.294 446.713Z" fill="#EBEFF0"/>
<path d="M272.948 206.976C272.941 206.976 272.936 206.976 272.929 206.976C272.499 206.976 272.159 206.699 272.169 206.254C272.447 194.269 288.209 184.319 295.784 179.514C296.014 179.367 296.248 179.245 296.475 179.1C295.339 179.413 294.178 179.769 293.581 179.946C293.167 180.067 292.736 179.826 292.618 179.399C292.499 178.972 292.739 178.53 293.152 178.408C295.465 177.724 296.938 177.318 297.926 177.087C299.003 176.836 300.02 176.6 300.364 177.407C300.698 178.194 299.913 178.746 299.218 179.231C298.598 179.666 297.715 180.227 296.597 180.936C289.829 185.23 273.982 195.182 273.724 206.293C273.716 206.731 273.369 206.976 272.948 206.976Z" fill="#001B47"/>
<path d="M252.822 197.153C252.471 197.153 252.152 196.907 252.066 196.539C249.344 185.019 227.779 165.236 227.561 165.037C227.239 164.743 227.209 164.234 227.493 163.901C227.778 163.569 228.269 163.537 228.591 163.831C229.495 164.655 250.741 184.149 253.577 196.157C253.679 196.589 253.424 197.024 253.006 197.13C252.944 197.146 252.882 197.153 252.822 197.153Z" fill="#001B47"/>
<path d="M304.255 246.359C292.129 246.359 276.296 227.644 275.576 226.785C275.295 226.449 275.33 225.94 275.655 225.65C275.979 225.359 276.471 225.395 276.753 225.731C276.937 225.95 295.303 247.665 306.685 244.426C307.099 244.308 307.528 244.561 307.641 244.989C307.755 245.417 307.512 245.86 307.098 245.978C306.18 246.239 305.229 246.359 304.255 246.359Z" fill="#001B47"/>
<path d="M272.469 200.558C272.38 200.558 272.29 200.542 272.203 200.51C271.799 200.358 271.59 199.896 271.737 199.479C272.481 197.361 279.136 178.74 283.677 176.906C284.078 176.743 284.528 176.949 284.684 177.362C284.84 177.776 284.643 178.243 284.243 178.404C281.318 179.586 275.917 192.295 273.2 200.029C273.084 200.355 272.786 200.558 272.469 200.558Z" fill="#001B47"/>
<path d="M356.191 109.732C356.08 109.732 355.968 109.724 355.856 109.708L338.411 107.25C337.048 107.058 336.095 105.759 336.28 104.351C336.466 102.942 337.721 101.955 339.084 102.147L355.603 104.475L369.537 95.0058C370.041 94.6647 370.645 94.5225 371.241 94.6068L387.762 96.935L401.698 87.466C402.2 87.1235 402.804 86.9822 403.401 87.0661L420.848 89.5237C422.21 89.7157 423.165 91.0129 422.98 92.4223C422.794 93.8312 421.541 94.8189 420.176 94.626L403.652 92.2987L389.716 101.768C389.214 102.11 388.609 102.252 388.013 102.168L371.493 99.8399L357.559 109.309C357.152 109.585 356.676 109.732 356.191 109.732Z" fill="#F39200"/>
<path d="M408.511 131.519C408.093 131.519 407.668 131.409 407.278 131.179L395.301 124.1L382.265 128.776C381.586 129.02 380.838 128.947 380.213 128.579L368.237 121.501L355.204 126.176C354.526 126.42 353.777 126.348 353.153 125.979L340.193 118.32C339 117.614 338.585 116.041 339.267 114.807C339.951 113.572 341.471 113.143 342.665 113.849L354.641 120.928L367.674 116.252C368.353 116.009 369.101 116.08 369.725 116.449L381.702 123.527L394.737 118.852C395.416 118.609 396.164 118.68 396.788 119.049L409.748 126.709C410.943 127.414 411.357 128.987 410.676 130.222C410.216 131.052 409.376 131.518 408.511 131.519Z" fill="#F39200"/>
<path d="M336.233 97.1757C334.98 97.1757 333.902 96.2013 333.76 94.884C333.609 93.4705 334.594 92.1979 335.962 92.0415L349.085 90.5382L356.244 79.0666C356.65 78.4154 357.317 77.9887 358.062 77.9029L371.185 76.4001L378.346 64.928C378.752 64.2769 379.419 63.8501 380.164 63.7644L394.465 62.1256C395.829 61.9697 397.063 62.9883 397.213 64.4013C397.365 65.8148 396.379 67.0874 395.012 67.2438L381.888 68.7481L374.728 80.2202C374.322 80.8713 373.654 81.2985 372.91 81.3838L359.787 82.8866L352.627 94.3583C352.222 95.0089 351.554 95.4362 350.809 95.5219L336.509 97.1593C336.416 97.1707 336.324 97.1757 336.233 97.1757Z" fill="#F39200"/>
<path d="M305.168 250.899C302.567 251.029 299.592 250.334 296.577 249.21C301.265 240.009 308.639 228.402 312.519 217.694C318.009 202.562 309.549 175.18 304.269 160.831C304.348 160.884 304.428 160.923 304.508 160.923H304.565C310.266 164.571 315.045 167.985 319.011 171.568C319.352 171.821 319.688 172.128 320.035 172.387C320.047 172.457 320.058 172.546 320.075 172.622C358.827 209.093 314.806 250.422 305.168 250.899Z" fill="#AC0D1A"/>
</svg>
