<svg width="169" height="63" viewBox="0 0 169 63" fill="none" xmlns="http://www.w3.org/2000/svg">
<path d="M14.64 17.11C16.48 18.17 17.4 19.77 17.4 21.91C17.4 23.69 16.77 25.15 15.51 26.29C14.25 27.43 12.7 28 10.86 28H1.95V7H10.23C12.03 7 13.54 7.56 14.76 8.68C16 9.78 16.62 11.19 16.62 12.91C16.62 14.65 15.96 16.05 14.64 17.11ZM10.23 10.87H6.09V15.49H10.23C10.87 15.49 11.4 15.27 11.82 14.83C12.26 14.39 12.48 13.84 12.48 13.18C12.48 12.52 12.27 11.97 11.85 11.53C11.43 11.09 10.89 10.87 10.23 10.87ZM10.86 24.13C11.56 24.13 12.14 23.9 12.6 23.44C13.06 22.96 13.29 22.36 13.29 21.64C13.29 20.94 13.06 20.36 12.6 19.9C12.14 19.42 11.56 19.18 10.86 19.18H6.09V24.13H10.86Z" fill="black"/>
<path d="M47.33 28V24.16C48.57 24.34 49.5 24.09 50.12 23.41C50.74 22.73 51.05 21.4 51.05 19.42V7H65.33V28H61.22V10.96H55.16V19.3C55.16 21.12 54.94 22.65 54.5 23.89C54.06 25.13 53.45 26.05 52.67 26.65C51.91 27.25 51.09 27.65 50.21 27.85C49.35 28.05 48.39 28.1 47.33 28Z" fill="black"/>
<path d="M107.89 7H112V28H107.89V19.3H100.09V28H95.95V7H100.09V15.34H107.89V7ZM131.291 7V10.96H125.621V28H121.481V10.96H115.841V7H131.291ZM140.082 4.96C139.702 5.34 139.232 5.53 138.672 5.53C138.112 5.53 137.632 5.34 137.232 4.96C136.832 4.56 136.632 4.08 136.632 3.52C136.632 2.96 136.832 2.48 137.232 2.08C137.632 1.68 138.112 1.48 138.672 1.48C139.232 1.48 139.702 1.68 140.082 2.08C140.482 2.48 140.682 2.96 140.682 3.52C140.682 4.08 140.482 4.56 140.082 4.96ZM145.782 4.96C145.402 5.34 144.932 5.53 144.372 5.53C143.812 5.53 143.332 5.34 142.932 4.96C142.532 4.56 142.332 4.08 142.332 3.52C142.332 2.96 142.532 2.48 142.932 2.08C143.332 1.68 143.812 1.48 144.372 1.48C144.932 1.48 145.402 1.68 145.782 2.08C146.182 2.48 146.382 2.96 146.382 3.52C146.382 4.08 146.182 4.56 145.782 4.96ZM139.242 24.04H148.092V28H135.102V7H147.942V10.96H139.242V15.43H147.192V19.33H139.242V24.04ZM160.341 7C162.361 7 164.061 7.68 165.441 9.04C166.821 10.4 167.511 12.07 167.511 14.05C167.511 16.03 166.821 17.7 165.441 19.06C164.061 20.42 162.361 21.1 160.341 21.1H156.651V28H152.511V7H160.341ZM160.341 17.23C161.221 17.23 161.951 16.93 162.531 16.33C163.111 15.71 163.401 14.95 163.401 14.05C163.401 13.13 163.111 12.37 162.531 11.77C161.951 11.17 161.221 10.87 160.341 10.87H156.651V17.23H160.341Z" fill="black"/>
<path d="M22.934 49.036C24.2247 49.7987 24.87 50.95 24.87 52.49C24.87 53.854 24.4007 54.9467 23.462 55.768C22.5233 56.5893 21.2693 57 19.7 57H13.21V41.6H19.282C20.822 41.6 22.054 41.996 22.978 42.788C23.902 43.5653 24.364 44.6287 24.364 45.978C24.364 47.2687 23.8873 48.288 22.934 49.036ZM19.172 45.12H17.148V47.54H19.172C19.524 47.54 19.8173 47.4373 20.052 47.232C20.3013 47.012 20.426 46.7113 20.426 46.33C20.426 45.9633 20.3087 45.67 20.074 45.45C19.8393 45.23 19.5387 45.12 19.172 45.12ZM19.59 53.48C19.986 53.48 20.3087 53.3627 20.558 53.128C20.8073 52.8787 20.932 52.5633 20.932 52.182C20.932 51.786 20.8073 51.4707 20.558 51.236C20.3087 51.0013 19.986 50.884 19.59 50.884H17.148V53.48H19.59ZM40.3044 57H35.9044L31.4824 50.114V57H27.5444V41.6H31.4824V48.068L35.6844 41.6H40.0844L35.2004 49.08L40.3044 57ZM41.7241 57V53.326C42.5454 53.4287 43.1394 53.3113 43.5061 52.974C43.8874 52.622 44.0781 51.9033 44.0781 50.818V41.6H55.0341V57H51.0961V45.406H48.0161V50.994C48.0161 52.2553 47.8327 53.326 47.4661 54.206C47.1141 55.0713 46.6227 55.7093 45.9921 56.12C45.3761 56.5307 44.7161 56.802 44.0121 56.934C43.3081 57.066 42.5454 57.088 41.7241 57ZM71.5349 41.314C73.7643 41.314 75.6489 42.0913 77.1889 43.646C78.7436 45.186 79.5209 47.0707 79.5209 49.3C79.5209 51.5147 78.7436 53.3993 77.1889 54.954C75.6489 56.5087 73.7643 57.286 71.5349 57.286C69.4523 57.286 67.6703 56.5967 66.1889 55.218C64.7076 53.8247 63.8716 52.1013 63.6809 50.048H61.0409V57H58.9949V41.6H61.0409V48.112H63.7469C64.0256 46.1613 64.8909 44.5407 66.3429 43.25C67.7949 41.9593 69.5256 41.314 71.5349 41.314ZM67.2889 53.568C68.4329 54.712 69.8483 55.284 71.5349 55.284C73.2216 55.284 74.6296 54.712 75.7589 53.568C76.9029 52.4093 77.4749 50.9867 77.4749 49.3C77.4749 47.5987 76.9029 46.176 75.7589 45.032C74.6296 43.8733 73.2216 43.294 71.5349 43.294C69.8483 43.294 68.4329 43.8733 67.2889 45.032C66.1596 46.176 65.5949 47.5987 65.5949 49.3C65.5949 50.9867 66.1596 52.4093 67.2889 53.568ZM91.3169 41.6H93.3629V57H91.3169V50.796C90.1142 51.368 88.8529 51.654 87.5329 51.654C86.0369 51.654 84.8269 51.236 83.9029 50.4C82.9789 49.5493 82.5169 48.4493 82.5169 47.1V41.6H84.5629V46.968C84.5629 47.804 84.8269 48.4713 85.3549 48.97C85.8829 49.4687 86.6162 49.718 87.5549 49.718C88.8749 49.718 90.1289 49.432 91.3169 48.86V41.6ZM107.903 57L106.649 53.546H99.7193L98.4653 57H96.2873L102.029 41.6H104.339L110.081 57H107.903ZM100.423 51.632H105.945L103.173 44.042L100.423 51.632ZM119.677 57.286C117.345 57.286 115.417 56.516 113.891 54.976C112.381 53.436 111.625 51.544 111.625 49.3C111.625 47.056 112.381 45.164 113.891 43.624C115.417 42.084 117.345 41.314 119.677 41.314C121.085 41.314 122.376 41.6513 123.549 42.326C124.737 43.0007 125.661 43.91 126.321 45.054L124.539 46.088C124.099 45.2373 123.439 44.5627 122.559 44.064C121.694 43.5507 120.733 43.294 119.677 43.294C117.903 43.294 116.451 43.866 115.321 45.01C114.207 46.154 113.649 47.584 113.649 49.3C113.649 51.0013 114.207 52.424 115.321 53.568C116.451 54.712 117.903 55.284 119.677 55.284C120.733 55.284 121.694 55.0347 122.559 54.536C123.439 54.0227 124.099 53.348 124.539 52.512L126.321 53.524C125.676 54.668 124.759 55.5847 123.571 56.274C122.383 56.9487 121.085 57.286 119.677 57.286ZM139.886 41.6V57H137.862V51.104H134.804L130.822 57H128.512L132.604 50.972C131.548 50.7227 130.675 50.1653 129.986 49.3C129.296 48.4347 128.952 47.4593 128.952 46.374C128.952 45.054 129.414 43.932 130.338 43.008C131.276 42.0693 132.406 41.6 133.726 41.6H139.886ZM133.726 49.256H137.862V43.514H133.726C132.978 43.514 132.332 43.7927 131.79 44.35C131.247 44.9073 130.976 45.582 130.976 46.374C130.976 47.166 131.247 47.848 131.79 48.42C132.332 48.9773 132.978 49.256 133.726 49.256Z" fill="#1381BB"/>
<ellipse cx="32" cy="17.5" rx="11" ry="10.5" fill="#3E97D2"/>
<ellipse cx="81" cy="17.5" rx="11" ry="10.5" fill="#E34B42"/>
<line x1="13" y1="62" x2="55" y2="62" stroke="#1381BB" stroke-width="2"/>
</svg>
